<?xml version="1.0" encoding="UTF-8"?>
<svg width="27px" height="27px" viewBox="0 0 27 27" version="1.1" xmlns="http://www.w3.org/2000/svg" xmlns:xlink="http://www.w3.org/1999/xlink">
    <!-- Generator: Sketch 50.2 (55047) - http://www.bohemiancoding.com/sketch -->
    <title>NCT</title>
    <desc>Created with Sketch.</desc>
    <defs></defs>
    <g id="Polyswarm" stroke="none" stroke-width="1" fill="none" fill-rule="evenodd">
        <g id="Artboard-3" transform="translate(-53.000000, -120.000000)" fill="#FFFFFF" fill-rule="nonzero">
            <g id="NCT" transform="translate(53.000000, 120.000000)">
                <path d="M16.6502637,0 C17.2665195,0.114560331 17.8872934,0.20829151 18.4981276,0.347303453 C22.8403821,1.33397128 26.1190982,4.94148967 26.7204446,9.3817213 C27.5192279,15.2786351 23.5099504,20.6167842 17.6026591,21.5002119 C17.0171257,21.5876038 16.4171346,21.6102442 15.8239206,21.6111498 C11.4708229,21.6206587 7.11727348,21.6174891 2.76417583,21.6134138 C2.51433016,21.612961 2.24234627,21.6269981 2.01915683,21.5377949 C1.57413335,21.3598416 1.34507051,20.9876337 1.40380457,20.5017711 C1.46524944,19.9923625 1.79641919,19.7021128 2.28797812,19.6088344 C2.4628249,19.5757795 2.6480631,19.595703 2.82878329,19.595703 C7.18188095,19.5952502 11.5354304,19.5984199 15.8885281,19.5947974 C20.2782216,19.5907221 23.7602479,16.7525239 24.658879,12.4522098 C25.6130817,7.88473927 22.3619254,3.03018866 17.7494942,2.28033923 C16.3538826,2.0534826 14.9090246,2.12140375 13.4863049,2.07838702 C12.6382754,2.05257699 11.7884387,2.07838702 10.9395056,2.07159491 C10.1922276,2.06570841 9.86602762,1.86149217 9.72009606,1.33080163 C9.57506811,0.803280737 9.7584991,0.470014321 10.4045738,0.083316604 C10.4325854,0.0665627217 10.4483984,0.0280740731 10.4696331,1.60869586e-15 C12.5298433,0 14.5900535,0 16.6502637,0 Z" id="Shape"></path>
                <path d="M0,25.3559916 C0.357478318,24.6991577 0.929926706,24.5326034 1.66758805,24.5462093 C3.68927286,24.5837426 5.71192383,24.5626301 7.73409172,24.5654451 C8.25243528,24.5659143 8.62150749,24.7864228 8.78382197,25.2767024 C8.92826254,25.7130277 8.81087439,26.0897689 8.45870993,26.3890974 C8.318134,26.508735 8.15340413,26.6016301 7.99978507,26.7071927 C5.64236048,26.7071927 3.2849359,26.7071927 0.927511312,26.7071927 C0.618340875,26.4064566 0.309170437,26.1066589 0,25.806392 C0,25.6562585 0,25.506125 0,25.3559916 Z" id="Shape"></path>
                <path d="M16.7989401,5.47457509 C19.5983134,5.52197977 21.9964019,7.83974668 22.3523359,10.6366231 C22.7980551,14.1399673 20.0399098,17.3860376 16.3206967,17.3436956 C13.9029104,17.3160812 11.484208,17.3400136 9.06642172,17.3372522 C8.40219472,17.3363317 7.96655343,17.0252097 7.87860061,16.5055992 C7.75858167,15.7940686 8.20475897,15.2956291 8.99312771,15.2933279 C11.4296956,15.2864243 13.8662634,15.3025327 16.3028313,15.2855038 C18.2267991,15.2726171 19.7123772,14.1574564 20.1997824,12.4048638 C20.8745454,9.97986108 19.0596024,7.52402227 16.5483662,7.513897 C12.0055117,7.49548741 7.46174091,7.50791389 2.91888634,7.50745365 C2.75397481,7.50745365 2.5881471,7.5161982 2.42415174,7.50377173 C1.82039231,7.45866824 1.3705503,6.98416116 1.39574512,6.42635069 C1.42093993,5.87406311 1.84421286,5.46398958 2.45575979,5.46168838 C4.89232765,5.45202334 7.32889551,5.45754622 9.76546337,5.45754622 C12.1094975,5.46629077 14.454906,5.43499448 16.7989401,5.47457509 Z" id="Shape"></path>
                <path d="M7.69332088,12.7048041 C7.31355449,12.7048041 6.93335457,12.7110371 6.55358818,12.7033657 C5.95662663,12.691379 5.62498132,12.3686971 5.58292956,11.7708008 C5.53784314,11.1379032 5.87859244,10.6104886 6.4534443,10.5793232 C7.33219599,10.5318559 8.21528291,10.5376095 9.09446812,10.575967 C9.62206594,10.5985019 9.99576301,11.0880386 10.0009653,11.6346319 C10.0066011,12.1836225 9.63940688,12.6069926 9.09143345,12.6822691 C9.03984418,12.6894611 8.98825491,12.6942558 8.93666564,12.6942558 C8.52221739,12.6952147 8.10776913,12.6947352 7.69332088,12.6947352 C7.69332088,12.697612 7.69332088,12.7009683 7.69332088,12.7048041 Z" id="Shape"></path>
            </g>
        </g>
    </g>
</svg>