<?xml version="1.0" encoding="UTF-8"?>
<svg width="154px" height="26px" viewBox="0 0 154 26" version="1.1" xmlns="http://www.w3.org/2000/svg" xmlns:xlink="http://www.w3.org/1999/xlink">
  <g class="SVGPolyswarmLogo" fill="#FFFFFF" stroke="none" stroke-width="1" fill-rule="evenodd">
      <path d="M16.7578345,0 C17.3490848,0.110228654 17.9446698,0.200415735 18.5307185,0.334171454 C22.6967791,1.28353208 25.8424562,4.75464548 26.4194021,9.02698613 C27.1857735,14.7009299 23.3391787,19.8372366 17.6715849,20.6872608 C17.1098105,20.7713482 16.534165,20.7931325 15.9650215,20.7940039 C11.7885576,20.8031533 7.61166026,20.8001035 3.43519636,20.7961823 C3.19548857,20.7957467 2.93454085,20.8092529 2.72040767,20.7234227 C2.29344172,20.552198 2.07367346,20.1940638 2.13002429,19.7265723 C2.18897594,19.2364251 2.50670796,18.9571501 2.97832111,18.8673987 C3.14607322,18.8355936 3.32379509,18.8547638 3.49718228,18.8547638 C7.67364618,18.8543281 11.8505436,18.857378 16.0270075,18.8538925 C20.2385823,18.8499713 23.5793199,16.119089 24.4414877,11.9813755 C25.3569721,7.58660696 22.2377366,2.91561326 17.812462,2.19411662 C16.4734795,1.97583774 15.0872489,2.0411907 13.7222583,1.99980049 C12.9086389,1.97496637 12.0932856,1.99980049 11.2787993,1.99326519 C10.5618433,1.98760127 10.2488794,1.79110671 10.1088692,1.28048227 C9.96972603,0.77290764 10.145714,0.452242464 10.7655732,0.0801662941 C10.7924482,0.064045898 10.8076196,0.0270125556 10.8279926,1.54786897e-15 C12.8046066,0 14.7812205,0 16.7578345,0 Z" id="Shape" fill-rule="nonzero"></path>
      <path d="M0,24.6998896 C0.342973076,24.0678915 0.892193475,23.9076348 1.59992305,23.9207262 C3.53957484,23.9568404 5.48015358,23.9365261 7.42026885,23.9392347 C7.91757981,23.9396861 8.27167634,24.1518569 8.42740465,24.6235984 C8.56598431,25.0434257 8.45335937,25.4059218 8.11548454,25.6939323 C7.9806127,25.8090463 7.822567,25.8984289 7.67518127,26 C5.41341288,26 3.15164448,26 0.889876089,26 C0.593250726,25.7106351 0.296625363,25.4221731 0,25.1332597 C0,24.988803 0,24.8443463 0,24.6998896 Z" id="Shape" fill-rule="nonzero"></path>
      <path d="M0,24.96 C0.353554084,25.3066667 0.707108168,25.6527917 1.06066225,26 C0.707108168,26 0.353554084,26 0,26 C0,25.6533333 0,25.3066667 0,24.96 Z" id="Shape"></path>
      <path d="M10.1515167,5.21130121 C12.401317,5.21130121 14.6515568,5.18118827 16.9004782,5.21927229 C19.5862624,5.26488454 21.8870447,7.49501364 22.2285362,10.1861365 C22.6561697,13.5570147 20.0099404,16.6803468 16.4416402,16.6396058 C14.1219594,16.6130355 11.8013996,16.6360631 9.48171876,16.6334061 C8.84444381,16.6325204 8.42647935,16.3331623 8.34209536,15.8331989 C8.22694636,15.1485723 8.65501933,14.6689794 9.41139877,14.6667652 C11.7490991,14.6601226 14.0867994,14.6756219 16.4244997,14.659237 C18.2703995,14.6468375 19.6956979,13.5738425 20.1633259,11.8875177 C20.8107093,9.55420751 19.0694105,7.19122719 16.6600717,7.18148477 C12.3015505,7.16377127 7.94215039,7.17572788 3.58362925,7.17528504 C3.42540926,7.17528504 3.26631027,7.18369896 3.10896929,7.17174235 C2.52970833,7.12834428 2.09811937,6.67177893 2.12229187,6.13506001 C2.14646436,5.60365514 2.55256233,5.20908703 3.13929478,5.20687284 C5.47699509,5.19757325 7.8146954,5.2028873 10.1523957,5.2028873 C10.1515167,5.20554433 10.1515167,5.20820135 10.1515167,5.21130121 Z" id="Shape" fill-rule="nonzero"></path>
      <path d="M105.018369,16.8646297 C104.73842,17.1959714 104.513679,17.5414314 104.215907,17.8008573 C102.941357,18.9104767 101.463801,18.8853283 99.9866802,18.4075081 C98.6234512,17.9671899 97.8453326,16.931251 97.6818842,15.4885252 C97.5910312,14.6868638 97.5953783,13.8719664 97.588423,13.0623633 C97.5753819,11.4921305 97.5827719,9.92145656 97.5853801,8.35078257 C97.5866842,7.64133207 97.8861947,7.28175362 98.4578293,7.29057763 C99.0025123,7.29896044 99.2963716,7.65633289 99.2972411,8.33048734 C99.300284,10.395306 99.2920246,12.4596834 99.3011534,14.5249432 C99.308978,16.4194584 100.59396,17.4483381 102.408846,17.027874 C103.450395,16.7869784 104.141573,15.7655992 104.15244,14.385965 C104.167655,12.3740905 104.154614,10.3622159 104.162873,8.35034137 C104.163743,8.14518311 104.185912,7.91928842 104.271549,7.7392786 C104.464123,7.33337408 104.83449,7.21160273 105.239633,7.31484366 C105.682595,7.4273498 105.875169,7.76001502 105.873865,8.22548161 C105.869083,10.096172 105.86691,11.9664211 105.876473,13.8371115 C105.878647,14.2403688 105.904294,14.6475969 105.96863,15.0446774 C106.212933,16.559319 107.19884,17.1845002 108.474694,17.1068489 C109.914865,17.0190499 110.703851,16.1454728 110.719501,14.6506853 C110.74167,12.5157158 110.723848,10.3803051 110.729499,8.24489444 C110.730803,7.64662648 111.029879,7.30822565 111.542394,7.29101883 C112.014481,7.27557681 112.430057,7.58794681 112.428319,8.06444341 C112.41919,10.5325193 112.471789,13.0058897 112.322686,15.4664652 C112.209228,17.3323023 110.739062,18.5725171 108.890705,18.6678164 C106.983227,18.765763 106.330738,18.4657466 105.018369,16.8646297 Z" id="Shape" fill-rule="nonzero"></path>
      <path d="M146.333105,9.19465065 C147.590578,7.16846809 149.487848,7.02999753 151.190792,7.51221128 C152.614829,7.91523581 153.574308,9.06016167 153.683615,10.569181 C153.779043,11.8888541 153.768199,13.2178175 153.786417,14.5427993 C153.801165,15.604112 153.797261,16.665867 153.785983,17.7271797 C153.779043,18.3717535 153.438974,18.7278838 152.884194,18.7141695 C152.349801,18.70134 152.077399,18.3726383 152.076098,17.713023 C152.072628,15.7133843 152.081737,13.714188 152.06829,11.7149917 C152.065688,11.3119672 152.033589,10.8965555 151.932523,10.5094573 C151.694389,9.59988716 151.084955,9.07962718 150.171888,8.93407826 C149.178142,8.7756998 148.254232,8.92744229 147.721574,9.87859786 C147.442232,10.3771803 147.269595,11.0031734 147.253112,11.5774059 C147.195856,13.5394408 147.230556,15.5045724 147.226653,17.4688193 C147.226219,17.6621472 147.227954,17.8612263 147.183277,18.046591 C147.065727,18.5358831 146.701368,18.7840684 146.210785,18.7057639 C145.750565,18.6323259 145.517635,18.3363617 145.516768,17.8629959 C145.513731,15.9168873 145.527178,13.9703364 145.504189,12.0242279 C145.497682,11.5176822 145.438691,10.9956527 145.300755,10.5107845 C144.965458,9.33046681 143.979953,8.72924801 142.774532,8.90089841 C141.428139,9.09245672 140.69942,9.84586041 140.684239,11.1593399 C140.659081,13.335053 140.677732,15.5116508 140.672527,17.6878063 C140.671226,18.3549424 140.365858,18.7101879 139.814548,18.7146119 C139.324833,18.7190359 138.972185,18.4137813 138.97045,17.9138716 C138.961775,15.560757 138.911459,13.2054304 138.990837,10.8549701 C139.060672,8.79295332 140.591848,7.38701267 142.621848,7.2945515 C144.188592,7.22509502 145.500718,7.64714266 146.333105,9.19465065 Z" id="Shape" fill-rule="nonzero"></path>
      <path d="M58.8301295,18.7199465 C55.5151894,18.7071116 53.0239564,16.2410416 53.0331379,12.983634 C53.0423193,9.72976704 55.5912643,7.26458221 58.9293766,7.2800726 C62.1494417,7.2951204 64.7303032,9.86829538 64.7001356,13.0332032 C64.6695307,16.2751204 62.1323905,18.7332239 58.8301295,18.7199465 Z M54.8628694,13.0208109 C54.8628694,15.3240105 56.5933538,17.1222234 58.8296923,17.1434674 C61.066468,17.165154 62.8699668,15.3147163 62.8568505,13.0119593 C62.8437341,10.6919415 61.1202451,8.91984096 58.8738507,8.91674288 C56.5780514,8.91408739 54.8628694,10.6689272 54.8628694,13.0208109 Z" id="Shape" fill-rule="nonzero"></path>
      <path d="M125.156636,14.706983 C125.156636,15.7161693 125.16083,16.7257984 125.155238,17.7349847 C125.151976,18.3784019 124.843509,18.7109595 124.260589,18.7198159 C123.653439,18.7291151 123.326799,18.3859298 123.321207,17.7199289 C123.315616,17.0468428 123.304433,16.3737567 123.325867,15.7011134 C123.336584,15.3442007 123.224753,15.193642 122.824025,15.1967417 C121.202939,15.2117976 119.581854,15.2091406 117.960768,15.1980702 C117.601511,15.1958561 117.455664,15.3207312 117.461722,15.6625881 C117.473371,16.353387 117.469643,17.043743 117.461256,17.7345419 C117.452868,18.4036426 117.169563,18.7105167 116.574528,18.7193731 C115.993006,18.7277867 115.644466,18.4098421 115.633749,17.7681962 C115.610916,16.4229097 115.600199,15.0767375 115.632351,13.731451 C115.657047,12.7089801 115.630953,11.6639254 115.846694,10.6720091 C116.328965,8.45525323 118.243608,7.20428733 120.806871,7.28355207 C122.90417,7.34820376 124.763363,8.9020584 125.027098,11.001467 C125.179934,12.2205499 125.055056,13.471073 125.055056,14.7074258 C125.089071,14.7065402 125.123087,14.706983 125.156636,14.706983 Z M123.384578,13.4502604 C123.307229,12.5491222 123.326799,11.71175 123.145539,10.9160028 C122.855244,9.64333873 121.878586,8.94501192 120.564104,8.90471532 C119.146178,8.86131898 118.072133,9.48259514 117.724525,10.7322326 C117.510182,11.5018534 117.534412,12.3339118 117.486884,13.1398438 C117.481292,13.2372641 117.699829,13.4352046 117.81632,13.436533 C119.617733,13.4560171 121.419146,13.4502604 123.384578,13.4502604 Z" id="Shape" fill-rule="nonzero"></path>
      <path d="M131.860377,14.9842937 C132.099898,15.1458593 132.246729,15.2550616 132.402223,15.3481521 C133.314395,15.8959536 134.231332,16.4370419 135.142637,16.9861861 C135.738625,17.345569 135.913609,17.8266856 135.636406,18.3051169 C135.375661,18.7553524 134.861103,18.853366 134.312327,18.528892 C133.261553,17.9067971 132.209913,17.2860448 131.175165,16.6362018 C130.51724,16.2231129 130.086709,15.6524863 130.165538,14.7864764 C130.240037,13.9665643 130.732073,13.4447207 131.531198,13.3793783 C131.738234,13.3623714 131.949602,13.3802734 132.153173,13.345812 C133.347313,13.1417291 134.06371,12.2537893 134.029926,11.036005 C133.993976,9.75645869 133.264152,8.94728776 131.935308,8.83674284 C131.074679,8.76513479 130.20452,8.82063103 129.338693,8.80899472 C128.912926,8.80317657 128.994354,9.11690932 128.993921,9.37022279 C128.990889,12.0725315 128.991756,14.7748401 128.991756,17.4771488 C128.991756,17.6020153 128.998253,17.7282245 128.989157,17.8526435 C128.950608,18.386571 128.612334,18.7213386 128.118998,18.719996 C127.617434,18.7182058 127.294752,18.3901514 127.286089,17.8383219 C127.274395,17.104787 127.281758,16.371252 127.281758,15.6372696 C127.282191,13.2218406 127.280891,10.8055166 127.28349,8.3896401 C127.284357,7.61940604 127.562859,7.28150557 128.296149,7.28061047 C129.715083,7.27882027 131.137049,7.27568742 132.552519,7.35714157 C134.346111,7.46007814 135.69098,8.95847652 135.750319,10.8153627 C135.81832,12.9582335 134.641506,14.5465895 132.780779,14.8276511 C132.513104,14.8683781 132.245863,14.9185038 131.860377,14.9842937 Z" id="Shape" fill-rule="nonzero"></path>
      <path d="M45.505735,7.28 C46.4151604,7.34319693 47.3507953,7.28089641 48.227771,7.49603488 C50.0449578,7.94289541 51.1270327,9.8307355 50.875755,11.8799294 C50.6527669,13.6974013 49.1055787,15.1370363 47.3304102,15.1634804 C46.3989355,15.1773747 45.4670449,15.1849942 44.5364023,15.1607911 C44.1574056,15.1509306 44.0384232,15.304665 44.0463276,15.6896732 C44.0604724,16.3704968 44.0608884,17.0517687 44.0413353,17.7321441 C44.0221983,18.4049 43.7451272,18.7222292 43.2271791,18.7199882 C42.710479,18.7181954 42.4321598,18.3883164 42.4309118,17.7218353 C42.4250874,14.6041203 42.4250874,11.4859571 42.4304957,8.3677939 C42.4317438,7.61346463 42.6888458,7.35081641 43.4064848,7.34140411 C44.1049868,7.3319918 44.8034888,7.33916308 45.5024068,7.33916308 C45.5036549,7.31989026 45.5049029,7.29972103 45.505735,7.28 Z M44.0579762,13.3858987 C45.2873231,13.3858987 46.4347135,13.4352013 47.5766956,13.3706598 C48.5123305,13.3177716 49.2424502,12.3460628 49.2557629,11.299952 C49.2694916,10.2300863 48.5905427,9.23372624 47.6636443,9.15573855 C46.5720009,9.0643047 45.4712051,9.09612726 44.3749855,9.10195393 C44.2688997,9.10240213 44.0737851,9.29468214 44.072121,9.40090676 C44.0504878,10.705632 44.0579762,12.0103571 44.0579762,13.3858987 Z" id="Shape" fill-rule="nonzero"></path>
      <path d="M91.0054813,18.72 C90.1202154,18.5397912 89.2312142,18.3696426 88.3496836,18.17325 C88.1194958,18.1216368 87.9005138,18.0035388 87.6932047,17.8902522 C87.0231855,17.5241485 86.8154094,17.0666281 87.0955569,16.6143565 C87.3733697,16.1668963 87.9075175,16.0719806 88.5724008,16.4162143 C89.5776632,16.9362829 90.6184109,17.2354645 91.7824235,17.0723143 C92.9679141,16.9052275 93.75186,15.9770648 93.3545175,15.0585248 C93.1896974,14.6779868 92.7881528,14.3031351 92.3917442,14.1133035 C91.7030484,13.7821917 90.9303084,13.6072317 90.2014581,13.3469787 C89.6458324,13.1483991 89.0813353,12.9572553 88.5583934,12.6965649 C87.4849618,12.1603126 86.9741596,11.270641 87.0217847,10.1522093 C87.0703436,9.00097255 87.7100136,8.1633516 88.8525482,7.73295002 C90.6324183,7.06197846 92.4230273,7.18226346 94.1930922,7.79331122 C94.396666,7.86329522 94.6389935,7.98095581 94.7333098,8.1432312 C94.8719828,8.38205159 95.0260639,8.73503337 94.9303469,8.93973656 C94.822957,9.16980894 94.4554969,9.40687973 94.1823532,9.42831233 C93.8172277,9.45674333 93.421286,9.31108913 93.0598958,9.18599274 C92.1494166,8.87106476 91.2328676,8.72716017 90.2677597,8.92661456 C89.5048248,9.08407855 89.0523867,9.45893033 88.9725447,10.0520447 C88.9025078,10.5686141 89.2153391,11.0777476 89.8904945,11.362495 C90.5156902,11.6258098 91.1833749,11.8003324 91.8272471,12.0255934 C92.4715862,12.2499796 93.1303996,12.4498714 93.7467239,12.7293699 C94.7991445,13.2061359 95.4065975,13.9912689 95.4556233,15.1197608 C95.5097851,16.3615393 95.0125234,17.3325673 93.874191,17.9877924 C93.0033994,18.4877406 92.0387584,18.6443298 91.0054813,18.72 Z" id="Shape" fill-rule="nonzero"></path>
      <path d="M79.1893592,16.3596418 C79.1893592,15.8990917 79.2173241,15.4358845 79.1729354,14.9797628 C79.1587311,14.8305268 78.9762939,14.6091085 78.8329186,14.5741244 C76.4616788,13.9979939 75.3861426,12.6956113 75.3204474,10.2604525 C75.3018042,9.57007018 75.3040236,8.87835932 75.318228,8.18797697 C75.329769,7.61760336 75.6356066,7.29610395 76.1385296,7.28060466 C76.6729686,7.26421971 77.0014443,7.58129075 77.0276336,8.17557755 C77.0595934,8.90050116 77.0507157,9.62763895 77.0915532,10.3516769 C77.1843254,11.9990292 78.2611933,13.0069255 79.9231031,13.0277388 C81.4975673,13.0472236 82.5260515,12.4976633 82.8749461,11.2829624 C83.0755826,10.5841661 83.0578272,9.82071573 83.1186396,9.08516404 C83.1461605,8.75082237 83.1070985,8.41116665 83.1306245,8.07638214 C83.1634721,7.60874663 83.5092594,7.29521827 83.9664621,7.2810475 C84.4352059,7.26643389 84.8595611,7.55826325 84.8529028,8.0095138 C84.8355912,9.19055917 84.8821993,10.3941892 84.6713534,11.5464502 C84.3566381,13.2659849 83.1226345,14.1888565 81.4580614,14.5311692 C81.0527934,14.6144225 80.9298369,14.7658727 80.9378268,15.1542404 C80.9578017,16.0390281 80.9498118,16.9251442 80.9400463,17.8108175 C80.933388,18.3860623 80.6404231,18.6995907 80.1246274,18.7190755 C79.5906323,18.739446 79.2310845,18.422375 79.1986808,17.847573 C79.1711599,17.3533673 79.1929103,16.8560617 79.1929103,16.3600846 C79.1915787,16.3596418 79.190247,16.3596418 79.1893592,16.3596418 Z" id="Shape" fill-rule="nonzero"></path>
      <path d="M66.8224991,12.9477013 C66.8224991,11.4254402 66.8211513,9.90362692 66.8229484,8.38136579 C66.8238469,7.63837337 67.1041885,7.28635888 67.6913783,7.28008891 C68.2929445,7.27337107 68.5939523,7.64733049 68.5944015,8.41181997 C68.5957493,11.1338862 68.6060824,13.8559525 68.5840684,16.5775708 C68.5804743,17.0518499 68.7121091,17.191133 69.1883303,17.1808323 C70.5527491,17.1499303 71.9185156,17.1682924 73.2838329,17.1709795 C73.9280794,17.1723231 74.2371739,17.4168522 74.2461592,17.9206897 C74.2555938,18.4451286 73.9285286,18.716977 73.2676594,18.7178727 C71.4894672,18.7205598 69.7108258,18.7210077 67.9326337,18.7174248 C67.127101,18.7160813 66.8251947,18.416018 66.8233977,17.6219701 C66.8202528,16.0638805 66.8224991,14.5057909 66.8224991,12.9477013 Z" id="Shape" fill-rule="nonzero"></path>
      <path d="M8.39255301,11.4377017 C8.02819623,11.4377017 7.66342352,11.4436991 7.29906675,11.4363177 C6.72632784,11.4247842 6.40813956,11.1143034 6.36779412,10.5390143 C6.32453715,9.93004743 6.65146001,9.42257507 7.20298636,9.39258807 C8.04608132,9.34691555 8.89333561,9.35245162 9.7368465,9.3893587 C10.2430362,9.41104161 10.6015699,9.88206822 10.6065611,10.4079941 C10.6119683,10.9362267 10.2596735,11.3435886 9.73393497,11.4160188 C9.68443902,11.4229388 9.63494307,11.4275522 9.58544711,11.4275522 C9.18781574,11.4284749 8.79018437,11.4280136 8.39255301,11.4280136 C8.39255301,11.4307816 8.39255301,11.434011 8.39255301,11.4377017 Z" id="Shape" fill-rule="nonzero"></path>
  </g>
</svg>
